# Blender v2.79 (sub 0) OBJ File: ''
# www.blender.org
mtllib fence.mtl
o Cube
v 2.453861 -1.000000 -0.330967
v 2.453861 -1.000000 0.330967
v 1.813414 -1.000000 0.330967
v 1.813414 -1.000000 -0.330967
v 2.453861 1.000000 -0.330967
v 2.453861 1.000000 0.330967
v 1.813414 1.000000 0.330967
v 1.813414 1.000000 -0.330967
v -1.985149 -1.000000 -0.330967
v -1.985149 -1.000000 0.330967
v -2.625596 -1.000000 0.330967
v -2.625596 -1.000000 -0.330967
v -1.985149 1.000000 -0.330967
v -1.985149 1.000000 0.330967
v -2.625596 1.000000 0.330967
v -2.625596 1.000000 -0.330967
v -3.032111 0.300363 0.051103
v -3.032111 0.754893 0.051103
v -3.032111 0.300363 -0.111207
v -3.032111 0.754893 -0.111207
v 2.855174 0.300363 0.051103
v 2.855174 0.754893 0.051103
v 2.855174 0.300363 -0.111207
v 2.855174 0.754893 -0.111207
v -3.032111 -0.508581 0.051103
v -3.032111 -0.054052 0.051103
v -3.032111 -0.508581 -0.111207
v -3.032111 -0.054052 -0.111207
v 2.855174 -0.508581 0.051103
v 2.855174 -0.054052 0.051103
v 2.855174 -0.508581 -0.111207
v 2.855174 -0.054052 -0.111207
v 2.133637 1.361176 0.000000
v -2.305372 1.361176 0.000000
vn 0.0000 -1.0000 0.0000
vn -0.7483 0.6634 0.0000
vn 1.0000 0.0000 0.0000
vn -0.0000 -0.0000 1.0000
vn -1.0000 -0.0000 -0.0000
vn 0.0000 0.0000 -1.0000
vn -0.0000 0.6756 0.7373
vn 0.0000 1.0000 0.0000
vn 0.7483 0.6634 0.0000
vn 0.0000 0.6756 -0.7373
usemtl Material
s off
f 1//1 2//1 3//1 4//1
f 8//2 7//2 33//2
f 1//3 5//3 6//3 2//3
f 2//4 6//4 7//4 3//4
f 3//5 7//5 8//5 4//5
f 5//6 1//6 4//6 8//6
f 9//1 10//1 11//1 12//1
f 15//7 14//7 34//7
f 9//3 13//3 14//3 10//3
f 10//4 14//4 15//4 11//4
f 11//5 15//5 16//5 12//5
f 13//6 9//6 12//6 16//6
f 17//5 18//5 20//5 19//5
f 19//6 20//6 24//6 23//6
f 23//3 24//3 22//3 21//3
f 21//4 22//4 18//4 17//4
f 19//1 23//1 21//1 17//1
f 24//8 20//8 18//8 22//8
f 25//5 26//5 28//5 27//5
f 27//6 28//6 32//6 31//6
f 31//3 32//3 30//3 29//3
f 29//4 30//4 26//4 25//4
f 27//1 31//1 29//1 25//1
f 32//8 28//8 26//8 30//8
f 14//9 13//9 34//9
f 5//10 8//10 33//10
f 16//2 15//2 34//2
f 13//10 16//10 34//10
f 7//7 6//7 33//7
f 6//9 5//9 33//9
