<?xml version="1.0" encoding="iso-8859-1"?>
<!-- Generator: Adobe Illustrator 16.0.0, SVG Export Plug-In . SVG Version: 6.00 Build 0)  -->
<!DOCTYPE svg PUBLIC "-//W3C//DTD SVG 1.1//EN" "http://www.w3.org/Graphics/SVG/1.1/DTD/svg11.dtd">
<svg version="1.1" id="Capa_1" xmlns="http://www.w3.org/2000/svg" xmlns:xlink="http://www.w3.org/1999/xlink" x="0px" y="0px"
	 width="194.206px" height="194.207px" viewBox="0 0 194.206 194.207" style="enable-background:new 0 0 194.206 194.207;"
	 xml:space="preserve">
<g>
	<g>
		<path d="M192.601,70.559c-1.819-4.05-6.522-6.338-5.283-19.678c0,0-7.842,3.344-10.764,12.361
			c-6.507-14.808-21.404-8.25-21.404-8.25c6.944,4.401,4.334,10.135,8.785,16.696c-9.276-0.351-15.056,5.632-15.056,5.632
			c12.909,3.618,13.373,8.846,16.501,11.989c8.168,8.2,14.122,3.153,18.583-0.108c2.689,6.136,3.106,12.791,0.907,18.565
			c-2.131,5.574-6.465,9.866-12.224,12.092c-9.566,3.687-17.824,1.34-25.576-2.795c-8.411-6.454-10.821-14.375-6.75-22.433
			c0.354,0.115,0.675,0.337,1.055,0.411c0.411,0.073,0.822,0.105,1.233,0.105c3.491,0,6.45-2.497,7.066-5.936
			c0.338-1.901-0.095-3.802-1.196-5.368c-1.092-1.561-2.748-2.603-4.631-2.948c-3.997-0.712-7.625,1.988-8.289,5.822
			c-0.343,1.877,0.073,3.768,1.17,5.339c0.338,0.499,0.817,0.815,1.25,1.216c-3.301,6.441-2.942,12.938,0.744,18.766
			c-0.781-0.512-1.551-1.018-2.326-1.529c-2.499-1.661-5.073-3.375-7.625-4.878c-3.618-2.136-6.866-3.977-9.894-5.479
			c6.022-0.422,11.533-4.303,13.653-10.346c1.688-4.828,1.397-10.011-0.812-14.628c-2.22-4.611-6.096-8.079-10.921-9.774
			c-7.895-2.747-16.231-1.025-22.354,3.781V55.667c0.108-0.104,0.232-0.169,0.324-0.304l1.934-2.84
			c0.281-0.416,0.313-0.957,0.076-1.4c-0.232-0.443-0.691-0.717-1.194-0.717h-4.968c-0.501,0-0.962,0.274-1.194,0.717
			c-0.237,0.443-0.203,0.984,0.076,1.4l1.928,2.84c0.092,0.119,0.211,0.19,0.324,0.304v13.516
			c-6.133-4.823-14.479-6.534-22.362-3.781c-4.833,1.69-8.698,5.163-10.913,9.774c-2.212,4.611-2.505,9.801-0.814,14.628
			c2.133,6.022,7.58,9.935,13.603,10.378c-3.035,1.481-6.244,3.322-9.827,5.447c-2.55,1.503-5.126,3.228-7.625,4.878
			c-0.773,0.522-1.545,1.018-2.323,1.529c3.684-5.822,4.045-12.309,0.741-18.766c0.438-0.385,0.912-0.717,1.252-1.216
			c1.097-1.571,1.511-3.482,1.171-5.328c-0.665-3.845-4.319-6.539-8.287-5.833c-1.901,0.335-3.539,1.387-4.636,2.948
			c-1.099,1.566-1.521,3.483-1.197,5.368c0.604,3.438,3.576,5.936,7.069,5.936c0.393,0,0.805-0.032,1.237-0.105
			c0.377-0.074,0.696-0.296,1.052-0.411c4.071,8.058,1.664,15.979-6.75,22.433c-7.766,4.135-16.026,6.476-25.574,2.795
			c-5.746-2.226-10.099-6.518-12.227-12.092c-2.199-5.753-1.782-12.43,0.907-18.565c4.461,3.262,10.433,8.287,18.591,0.108
			c3.117-3.143,3.581-8.372,16.493-11.989c0,0-5.777-5.982-15.056-5.632c4.451-6.561,1.84-12.279,8.786-16.696
			c0,0-14.897-6.558-21.405,8.25C14.733,54.225,6.892,50.881,6.892,50.881c1.236,13.339-3.478,15.628-5.287,19.678
			C-3.012,80.824,3.34,84.682,7.967,87.651c-3.164,6.895-3.663,14.504-1.149,21.06c2.386,6.307,7.293,11.147,13.774,13.668
			c3.752,1.445,7.301,2.067,10.687,2.067c3.855,0,7.497-0.812,10.975-2.13c0.145-0.021,0.306,0.053,0.435-0.032
			c0.979-0.475,1.917-0.928,2.853-1.36c0.206-0.101,0.409-0.18,0.599-0.29c4.575-2.046,8.651-3.265,12.34-2.521
			c-2.328,0.959-3.889,3.053-4.358,6.138c-1.004,6.418,4.266,9.14,10.729,11.818c2.694,1.107,5.218,2.773,8.738,7.214
			c0.269,0.332,0.649,0.517,1.052,0.517c0.092,0,0.158,0,0.234-0.021c0.49-0.096,0.889-0.433,1.047-0.896
			c0.211-0.644,5.173-15.747,0.195-24.152c-1.685-2.827-4.29-4.604-7.75-5.221c-1.266-0.232-3.663,0.295-5.094,1.898
			c-0.361,0.39-0.527,0.906-0.733,1.381c-2.268-1.213-4.627-1.655-7.085-1.529c1.284-0.822,2.566-1.677,3.834-2.51
			c2.582-1.719,5.023-3.344,7.506-4.83c12.538-7.404,20.071-11.359,28.711-6.424c0.077,0.043,0.161,0.011,0.243,0.032v5.399
			c-1.906-2.183-4.622-3.659-7.76-3.786c-2.371-0.095-4.725,0.728-6.502,2.357c-1.783,1.635-2.819,3.86-2.933,6.271
			c-0.097,2.004,0.602,3.918,1.957,5.389c1.355,1.477,3.217,2.347,5.205,2.437c0.032,0,0.047,0,0.071,0
			c0.598,0,1.046-0.453,1.223-1.018c0.541-0.343,0.902-0.907,0.931-1.593c0.053-1.145-0.828-2.125-1.982-2.156
			c-0.994-0.059-1.814,0.616-2.052,1.534c-0.514-0.253-0.994-0.575-1.389-1.018c-0.868-0.938-1.316-2.157-1.248-3.454
			c0.077-1.683,0.789-3.254,2.054-4.393c1.237-1.14,2.769-1.768,4.567-1.646c3.932,0.158,6.998,3.09,7.673,6.823
			c-1.418,0.602-2.413,2.004-2.413,3.654c0,0.406,0.113,0.786,0.243,1.171H91.56c-0.504,0-0.963,0.28-1.195,0.723
			c-0.237,0.443-0.206,0.981,0.077,1.393l4.335,6.392c0.566,0.844,1.442,1.339,2.354,1.339c0.912,0,1.771-0.495,2.365-1.35
			l4.321-6.381c0.279-0.411,0.312-0.949,0.074-1.393c-0.232-0.442-0.691-0.723-1.192-0.723h-1.83
			c0.113-0.363,0.237-0.765,0.237-1.171c0-1.65-1.01-3.042-2.42-3.654c0.271-1.523,0.881-2.984,1.956-4.16
			c1.475-1.63,3.513-2.579,5.732-2.663c1.793-0.095,3.312,0.506,4.557,1.646c1.249,1.139,1.972,2.71,2.051,4.408
			c0.074,1.255-0.369,2.489-1.233,3.438c-0.401,0.433-0.876,0.774-1.388,1.013c-0.247-0.918-1.075-1.593-2.062-1.529
			c-1.145,0.042-2.03,1.012-1.982,2.151c0.036,0.686,0.411,1.233,0.933,1.593c0.18,0.559,0.67,0.949,1.271,1.012
			c2.004-0.09,3.86-0.954,5.221-2.436c1.35-1.477,2.041-3.396,1.94-5.379c-0.11-2.416-1.145-4.641-2.916-6.275
			c-1.777-1.635-4.098-2.458-6.492-2.363c-2.932,0.132-5.637,1.393-7.62,3.549c-0.065,0.069-0.113,0.143-0.158,0.222v-5.379
			c0.088-0.021,0.164,0.011,0.246-0.031c8.656-4.915,16.171-0.997,28.711,6.429c2.489,1.466,4.931,3.09,7.509,4.824
			c1.271,0.828,2.553,1.683,3.834,2.511c-2.457-0.11-4.836,0.332-7.082,1.529c-0.206-0.475-0.358-0.986-0.733-1.382
			c-1.45-1.598-3.833-2.136-5.094-1.893c-3.459,0.611-6.054,2.362-7.747,5.21c-4.983,8.411-0.021,23.514,0.19,24.157
			c0.158,0.464,0.564,0.807,1.049,0.896c0.074,0.021,0.148,0.021,0.232,0.021c0.406,0,0.786-0.18,1.06-0.522
			c3.513-4.435,6.044-6.096,8.733-7.214c6.46-2.652,11.744-5.379,10.726-11.812c-0.469-3.069-2.03-5.179-4.355-6.139
			c3.687-0.759,7.747,0.465,12.282,2.5c0.253,0.116,0.511,0.232,0.765,0.338c0.901,0.422,1.819,0.854,2.758,1.318
			c0.137,0.073,0.284,0.01,0.427,0.031c3.491,1.308,7.135,2.12,10.984,2.12c3.386,0,6.93-0.622,10.685-2.067
			c6.48-2.51,11.375-7.361,13.784-13.658c2.516-6.57,2.01-14.164-1.16-21.06C190.851,84.682,197.221,80.824,192.601,70.559z
			 M142.593,83.487c0.253,0,0.517,0.021,0.775,0.082c1.197,0.206,2.226,0.857,2.911,1.841c0.686,0.983,0.954,2.148,0.743,3.343
			c-0.427,2.392-2.689,4.034-5.168,3.645c-1.191-0.211-2.22-0.87-2.911-1.872c-0.68-0.974-0.938-2.146-0.728-3.317
			C138.569,85.075,140.452,83.487,142.593,83.487z M55.228,90.519c-0.691,0.992-1.722,1.651-2.911,1.862
			c-2.473,0.396-4.746-1.237-5.168-3.644c-0.211-1.184,0.055-2.365,0.741-3.343s1.717-1.637,2.911-1.84
			c0.259-0.05,0.522-0.071,0.775-0.071c2.138,0,4.023,1.593,4.385,3.715C56.161,88.363,55.908,89.551,55.228,90.519z M63.03,120.396
			c0.034,0,0.065-0.011,0.097,0c1.988,1.613,3.874,4.082,5.659,7.668c0.24,0.475,0.714,0.759,1.221,0.759
			c0.2,0,0.396-0.053,0.591-0.143c0.667-0.332,0.938-1.144,0.604-1.804c-1.983-3.997-4.137-6.766-6.415-8.611
			c0.082-0.374,0.2-0.738,0.479-1.039c0.612-0.686,1.717-1.064,2.613-1.027c2.679,0.484,4.611,1.756,5.888,3.938
			c3.277,5.521,1.408,15.093,0.248,19.518c-3.288-3.702-5.869-5.1-8.177-6.064c-7.641-3.144-9.677-5.121-9.094-8.886
			c0.459-3.006,2.009-4.456,4.743-4.456C62.371,120.216,63.03,120.396,63.03,120.396z M95.728,98.669
			c-3.333-1.677-6.534-2.31-9.811-1.982c3.612-3.352,5.118-8.649,3.391-13.571c-0.923-2.632-2.813-4.76-5.324-5.962
			c-2.529-1.226-5.368-1.374-8-0.443c-4.48,1.572-6.863,6.495-5.287,10.987c1.303,3.739,5.424,5.729,9.149,4.414
			c3.127-1.112,4.789-4.564,3.689-7.676c-0.25-0.706-1.018-1.067-1.719-0.814c-0.701,0.248-1.067,1.015-0.814,1.711
			c0.593,1.72-0.319,3.607-2.036,4.219c-2.328,0.81-4.888-0.422-5.714-2.755c-1.079-3.088,0.562-6.484,3.639-7.56
			c1.951-0.686,4.069-0.562,5.946,0.335c1.87,0.896,3.262,2.468,3.942,4.416c1.833,5.229-0.928,10.959-6.144,12.794
			c-6.713,2.362-14.072-1.202-16.421-7.9c-1.463-4.147-1.21-8.614,0.696-12.561c1.906-3.953,5.239-6.932,9.379-8.396
			c7.454-2.626,15.417-0.73,20.925,4.232c-1.912,2.188-3.454,4.775-4.464,7.683c-0.143,0.412-0.093,0.865,0.171,1.239
			c0.253,0.356,0.665,0.56,1.097,0.56h3.72L95.728,98.669L95.728,98.669z M95.728,78.973h-1.727c0.501-1.076,1.083-2.07,1.727-3.019
			V78.973z M98.428,75.954c0.644,0.949,1.236,1.938,1.732,3.019h-1.732V75.954z M113.547,96.813
			c-5.221-1.846-7.984-7.58-6.144-12.801c0.681-1.957,2.088-3.528,3.939-4.425c1.883-0.901,3.981-1.015,5.948-0.335
			c3.08,1.086,4.72,4.472,3.639,7.549c-0.817,2.344-3.38,3.586-5.706,2.776c-1.725-0.614-2.637-2.51-2.041-4.227
			c0.248-0.709-0.115-1.471-0.817-1.719c-0.701-0.248-1.471,0.113-1.719,0.822c-1.103,3.109,0.564,6.561,3.696,7.673
			c3.718,1.29,7.842-0.68,9.14-4.419c1.565-4.493-0.797-9.421-5.284-10.992c-2.652-0.931-5.506-0.778-8,0.442
			c-2.516,1.216-4.403,3.32-5.326,5.962c-1.725,4.917-0.227,10.22,3.386,13.576c-3.275-0.337-6.471,0.322-9.809,1.973V81.684h3.73
			c0.436,0,0.836-0.211,1.1-0.567c0.253-0.356,0.322-0.81,0.164-1.236c-1.016-2.9-2.553-5.498-4.47-7.684
			c5.503-4.965,13.461-6.848,20.923-4.224c4.16,1.453,7.488,4.417,9.381,8.387c1.909,3.953,2.151,8.427,0.701,12.559
			C127.616,95.616,120.26,99.133,113.547,96.813z M137.404,124.689c0.585,3.744-1.456,5.737-9.103,8.891
			c-2.299,0.965-4.867,2.362-8.185,6.064c-1.144-4.425-3.032-13.985,0.259-19.533c1.276-2.146,3.217-3.448,6.086-3.934
			c0.722,0,1.809,0.369,2.42,1.044c0.279,0.306,0.401,0.644,0.47,1.034c-2.278,1.835-4.414,4.613-6.413,8.605
			c-0.337,0.665-0.068,1.477,0.602,1.804c0.195,0.105,0.391,0.147,0.591,0.147c0.506,0,0.98-0.29,1.218-0.765
			c1.788-3.586,3.671-6.054,5.664-7.667c0.031-0.011,0.058,0,0.09,0c0.005,0,0.664-0.18,1.545-0.18
			C135.395,120.216,136.945,121.683,137.404,124.689z"/>
	</g>
</g>
<g>
</g>
<g>
</g>
<g>
</g>
<g>
</g>
<g>
</g>
<g>
</g>
<g>
</g>
<g>
</g>
<g>
</g>
<g>
</g>
<g>
</g>
<g>
</g>
<g>
</g>
<g>
</g>
<g>
</g>
</svg>
